<svg version="1.1" xmlns="http://www.w3.org/2000/svg" viewBox="0 0 1226.9042162578598 1061.7972092209548" width="1226.9042162578598" height="1061.7972092209548">
  <!-- svg-source:excalidraw -->
  
  <defs>
    <style>
      @font-face {
        font-family: "Virgil";
        src: url("https://excalidraw.com/Virgil.woff2");
      }
      @font-face {
        font-family: "Cascadia";
        src: url("https://excalidraw.com/Cascadia.woff2");
      }
    </style>
  </defs>
  <rect x="0" y="0" width="1226.9042162578598" height="1061.7972092209548" fill="#ffffff"></rect><g stroke-linecap="round" transform="translate(399.515625 456.6793152714859) rotate(0 87.74609375 73.890625)"><path d="M0.5 -0.35 C37.39 -1.26, 76.52 -2.12, 174.87 -1.55 M-0.55 0.22 C37.2 -1.86, 72.8 -2.4, 175.86 -0.97 M175.85 -0.34 C174.75 43.94, 174.2 89.53, 177.03 147.54 M174.58 0.23 C176.57 56.6, 177.54 112.79, 174.6 148.33 M173.74 148.22 C141.47 148.78, 106.13 145.6, -1.71 146.86 M176.13 147.88 C137.65 147.62, 99.05 148.56, 0 148.09 M-0.11 148.18 C1.6 88.65, 1.36 32.58, -0.46 -1.22 M-0.71 146.95 C-1.17 117.85, -1.36 87.19, 0.25 -0.7" stroke="#000000" stroke-width="1" fill="none"></path></g><g transform="translate(404.515625 518.0699402714858) rotate(0 82.5 12.5)"><text x="82.5" y="18" font-family="Virgil, Segoe UI Emoji" font-size="20px" fill="#000000" text-anchor="middle" style="white-space: pre;" direction="ltr">Finance Service</text></g><g stroke-linecap="round"><g transform="translate(540.1848954606764 455.5074402714859) rotate(0 15.121108805939514 -66.7796155218035)"><path d="M1.19 -0.35 C6.01 -22.41, 24.97 -111, 29.89 -133.21 M0.35 -1.58 C4.92 -23.36, 23.86 -109.83, 28.84 -131.65" stroke="#000000" stroke-width="1" fill="none"></path></g><g transform="translate(540.1848954606764 455.5074402714859) rotate(0 15.121108805939514 -66.7796155218035)"><path d="M32.14 -102.23 C31.54 -112.17, 29.39 -125.86, 28.78 -130.9 M32.83 -102.81 C31.89 -110.67, 30.05 -117.84, 28.84 -132.4" stroke="#000000" stroke-width="1" fill="none"></path></g><g transform="translate(540.1848954606764 455.5074402714859) rotate(0 15.121108805939514 -66.7796155218035)"><path d="M12.11 -106.69 C19.07 -115.14, 24.52 -127.14, 28.78 -130.9 M12.8 -107.27 C17.54 -114.04, 21.39 -119.94, 28.84 -132.4" stroke="#000000" stroke-width="1" fill="none"></path></g></g><g stroke-linecap="round" transform="translate(566.48046875 243.1988465214859) rotate(0 77.73046875 50.5703125)"><path d="M48.32 3.25 C58.33 -0.36, 73.62 -1.14, 85.56 -0.1 C97.5 0.94, 109.9 5.16, 119.97 9.46 C130.05 13.76, 140.1 18.92, 146.01 25.7 C151.93 32.48, 155.23 42.28, 155.45 50.17 C155.67 58.05, 152.89 66.2, 147.33 73 C141.78 79.81, 132.02 86.38, 122.13 90.99 C112.23 95.59, 99.81 99.47, 87.96 100.63 C76.11 101.8, 62.29 100.6, 51.01 97.99 C39.74 95.38, 28.24 90.63, 20.33 84.97 C12.43 79.31, 6.63 71.63, 3.57 64.03 C0.52 56.43, -0.61 46.93, 2.01 39.35 C4.63 31.76, 10 24.89, 19.28 18.52 C28.56 12.15, 49.35 3.93, 57.68 1.13 C66.02 -1.68, 68.97 0.72, 69.28 1.71 M79.51 -0.09 C90.97 -0.5, 105.26 3.71, 115.82 7.61 C126.37 11.5, 136.3 16.95, 142.86 23.26 C149.43 29.58, 154.04 37.51, 155.2 45.53 C156.36 53.54, 154.34 64.07, 149.82 71.38 C145.3 78.69, 137.7 84.39, 128.09 89.37 C118.48 94.36, 103.99 99.49, 92.16 101.31 C80.34 103.14, 68.33 102.9, 57.14 100.3 C45.94 97.71, 33.69 91.25, 25.01 85.76 C16.32 80.26, 9.23 74.5, 5.01 67.35 C0.79 60.2, -1.83 50.9, -0.32 42.86 C1.19 34.81, 6.79 25.55, 14.08 19.09 C21.36 12.63, 32.24 7.12, 43.38 4.1 C54.52 1.09, 74.71 1.52, 80.9 0.99 C87.09 0.47, 80.84 0.15, 80.54 0.98" stroke="#000000" stroke-width="1" fill="none"></path></g><g transform="translate(571.48046875 281.2691590214859) rotate(0 72.5 12.5)"><text x="72.5" y="18" font-family="Virgil, Segoe UI Emoji" font-size="20px" fill="#000000" text-anchor="middle" style="white-space: pre;" direction="ltr">SQL DB</text></g><g stroke-linecap="round"><g transform="translate(449.29142153284533 453.7066590214859) rotate(0 -130.87688239791908 -70.00858813031796)"><path d="M-0.76 0.14 C-44.4 -22.84, -219.26 -115.1, -262.79 -138.22 M1.04 -0.84 C-42.11 -24.15, -216.45 -117.42, -260.4 -140.15" stroke="#000000" stroke-width="1" fill="none"></path></g><g transform="translate(449.29142153284533 453.7066590214859) rotate(0 -130.87688239791908 -70.00858813031796)"><path d="M-230.45 -137.1 C-236.52 -136.82, -243.59 -136.32, -261.77 -138.71 M-231.56 -135.96 C-237.69 -137.04, -245.21 -138.67, -259.48 -141" stroke="#000000" stroke-width="1" fill="none"></path></g><g transform="translate(449.29142153284533 453.7066590214859) rotate(0 -130.87688239791908 -70.00858813031796)"><path d="M-240.03 -118.95 C-243.96 -122.56, -248.94 -126.01, -261.77 -138.71 M-241.13 -117.81 C-245.09 -123.17, -250.34 -129.09, -259.48 -141" stroke="#000000" stroke-width="1" fill="none"></path></g></g><g stroke-linecap="round" transform="translate(10 207.9019715214859) rotate(0 88 59.15234375)"><path d="M-1.58 0.71 C39.58 0.59, 81.96 0.6, 175.7 -1.78 M0.41 -0.62 C65.1 0.43, 129.62 0.07, 175.26 0.1 M174.36 -0.94 C173.72 33.58, 173.51 67.76, 174.14 116.34 M176.29 -0.27 C175.37 33.42, 175.47 64.2, 175.26 118.07 M177.54 119.48 C115.29 118.06, 52.72 115.77, -0.82 116.5 M176.39 117.93 C124.2 118.61, 74.71 119.54, -0.58 118.65 M-1.28 118.62 C1.99 78.11, -0.4 42.78, -0.16 -1.12 M0.09 118.29 C0.32 82.37, -0.13 46.27, -0.38 -0.57" stroke="#000000" stroke-width="1" fill="none"></path></g><g transform="translate(15 229.5543152714859) rotate(0 83 37.5)"><text x="83" y="18" font-family="Virgil, Segoe UI Emoji" font-size="20px" fill="#000000" text-anchor="middle" style="white-space: pre;" direction="ltr">3rd Party </text><text x="83" y="43" font-family="Virgil, Segoe UI Emoji" font-size="20px" fill="#000000" text-anchor="middle" style="white-space: pre;" direction="ltr">Payments </text><text x="83" y="68" font-family="Virgil, Segoe UI Emoji" font-size="20px" fill="#000000" text-anchor="middle" style="white-space: pre;" direction="ltr">Provider</text></g><g stroke-linecap="round" transform="translate(808.1066644663362 617.5637967197906) rotate(0 177.64094147774898 217.11670625058213)"><path d="M0.13 1.09 L354.71 -0.67 L356.56 435.16 L0.91 432.81" stroke="none" stroke-width="0" fill="#868e96"></path><path d="M-0.76 -0.83 C99.04 2.31, 196.32 1.91, 355.33 -0.2 M-0.31 -0.59 C115.04 -0.66, 229.33 -1.27, 355 0.53 M355.51 -0.76 C353.64 142.94, 352.78 286.92, 355.16 433.77 M355.59 0.1 C356.4 92.59, 356.63 185.72, 354.78 434.28 M356.03 433.75 C273.41 432.9, 192.24 434.5, -0.19 435.37 M354.94 434.4 C249.58 432.15, 144.35 431.45, -0.26 434.43 M-0.82 434.2 C-0.27 305.06, -0.65 178.45, -0.2 -0.94 M0.14 434.24 C-2.31 275.62, -1.6 115.96, 0.34 -0.02" stroke="#000000" stroke-width="1" fill="none"></path></g><g stroke-linecap="round" transform="translate(792.8651490856986 599.7997025720172) rotate(0 177.64094147774898 217.11670625058207)"><path d="M1.09 -0.57 L354.62 1.27 L356.21 435.15 L-1.43 435.29" stroke="none" stroke-width="0" fill="#ffffff"></path><path d="M-0.83 0.41 C112.15 0.4, 223.72 1.39, 355.08 0.29 M-0.59 0.35 C98.33 1.07, 195.52 0.84, 355.82 0.2 M354.52 0.39 C352.72 89.89, 353.15 180.6, 354.82 433.36 M355.39 0.06 C357.06 151.45, 357.27 301.85, 355.33 433.87 M354.79 433.58 C260.86 434.95, 169.27 435.36, 1.14 434.18 M355.45 433.74 C214.3 432.52, 72.49 432.76, 0.2 434.21 M-0.04 435.11 C-1.84 281.93, -0.08 128.43, -0.94 0.68 M0 434 C1.85 263.73, 1.24 92.61, -0.02 0.03" stroke="#000000" stroke-width="1" fill="none"></path></g><g stroke-linecap="round"><g transform="translate(815.3216838468022 650.1085183361006) rotate(0 157.60138197197324 -0.2562285963445845)"><path d="M-0.78 0.38 C52.07 0.35, 263.25 -0.84, 315.98 -0.89 M1.01 -0.47 C53.82 -0.31, 262.84 -0.13, 315.12 0.18" stroke="#000000" stroke-width="1" fill="none"></path></g></g><g transform="translate(832.889704387023 617.3424228444835) rotate(0 14.226873447370735 12.448514266449394)"><text x="0" y="17.897028532898783" font-family="Virgil, Segoe UI Emoji" font-size="19.73788238641658px" fill="#000000" text-anchor="start" style="white-space: pre;" direction="ltr">ID</text></g><g transform="translate(931.0303257906095 619.5375849584325) rotate(0 27.564567304280843 12.448514266449394)"><text x="0" y="17.897028532898783" font-family="Virgil, Segoe UI Emoji" font-size="19.737882386416583px" fill="#000000" text-anchor="start" style="white-space: pre;" direction="ltr">NAME</text></g><g transform="translate(931.0303257906124 659.0133497312636) rotate(0 90.50000000000006 168)"><text x="0" y="17" font-family="Virgil, Segoe UI Emoji" font-size="19.29444685307309px" fill="#000000" text-anchor="start" style="white-space: pre;" direction="ltr">NIKE</text><text x="0" y="41" font-family="Virgil, Segoe UI Emoji" font-size="19.29444685307309px" fill="#000000" text-anchor="start" style="white-space: pre;" direction="ltr">PLEO</text><text x="0" y="65" font-family="Virgil, Segoe UI Emoji" font-size="19.29444685307309px" fill="#000000" text-anchor="start" style="white-space: pre;" direction="ltr">APPLE</text><text x="0" y="89" font-family="Virgil, Segoe UI Emoji" font-size="19.29444685307309px" fill="#000000" text-anchor="start" style="white-space: pre;" direction="ltr">JOHN LEWIS</text><text x="0" y="113" font-family="Virgil, Segoe UI Emoji" font-size="19.29444685307309px" fill="#000000" text-anchor="start" style="white-space: pre;" direction="ltr">MERCADONA</text><text x="0" y="137" font-family="Virgil, Segoe UI Emoji" font-size="19.29444685307309px" fill="#000000" text-anchor="start" style="white-space: pre;" direction="ltr">OCADO</text><text x="0" y="161" font-family="Virgil, Segoe UI Emoji" font-size="19.29444685307309px" fill="#000000" text-anchor="start" style="white-space: pre;" direction="ltr">NETTO</text><text x="0" y="185" font-family="Virgil, Segoe UI Emoji" font-size="19.29444685307309px" fill="#000000" text-anchor="start" style="white-space: pre;" direction="ltr">MAGASIN</text><text x="0" y="209" font-family="Virgil, Segoe UI Emoji" font-size="19.29444685307309px" fill="#000000" text-anchor="start" style="white-space: pre;" direction="ltr">IBM</text><text x="0" y="233" font-family="Virgil, Segoe UI Emoji" font-size="19.29444685307309px" fill="#000000" text-anchor="start" style="white-space: pre;" direction="ltr">HUBSPOT</text><text x="0" y="257" font-family="Virgil, Segoe UI Emoji" font-size="19.29444685307309px" fill="#000000" text-anchor="start" style="white-space: pre;" direction="ltr">MAILCHIMP</text><text x="0" y="281" font-family="Virgil, Segoe UI Emoji" font-size="19.29444685307309px" fill="#000000" text-anchor="start" style="white-space: pre;" direction="ltr">EXPEDIA</text><text x="0" y="305" font-family="Virgil, Segoe UI Emoji" font-size="19.29444685307309px" fill="#000000" text-anchor="start" style="white-space: pre;" direction="ltr">BRITISH AIRWAYS</text><text x="0" y="329" font-family="Virgil, Segoe UI Emoji" font-size="19.29444685307309px" fill="#000000" text-anchor="start" style="white-space: pre;" direction="ltr">LOGITECH</text></g><g stroke-linecap="round"><g transform="translate(914.5752568426776 620.6432671472039) rotate(0 0.6913102664407234 198.79831491126865)"><path d="M-0.3 0.63 C-0.36 66.71, -0.75 330.36, -0.59 396.72 M1.75 -0.08 C2.1 66.08, 2.07 331.5, 1.81 397.68" stroke="#000000" stroke-width="1" fill="none"></path></g></g><g stroke-linecap="round" transform="translate(439.0213154161879 755.2899960172429) rotate(0 22.445481458812083 34.32736593007303)"><path d="M0 0 C0 0, 0 0, 0 0 M0 0 C0 0, 0 0, 0 0 M0.13 12.04 C2.38 9.46, 4.63 6.87, 10.63 -0.03 M0.13 12.04 C3.36 8.33, 6.58 4.62, 10.63 -0.03 M0.27 24.08 C5.18 18.42, 10.1 12.77, 21.26 -0.07 M0.27 24.08 C5.47 18.1, 10.67 12.11, 21.26 -0.07 M-0.26 36.88 C11.89 22.9, 24.04 8.93, 31.89 -0.1 M-0.26 36.88 C7.18 28.32, 14.62 19.76, 31.89 -0.1 M-0.12 48.92 C12.17 34.78, 24.46 20.64, 42.52 -0.14 M-0.12 48.92 C13.44 33.32, 26.99 17.72, 42.52 -0.14 M0.01 60.96 C13.39 45.56, 26.77 30.17, 49.21 4.36 M0.01 60.96 C14.89 43.84, 29.78 26.71, 49.21 4.36 M2.11 70.74 C12.82 58.42, 23.52 46.1, 49.35 16.4 M2.11 70.74 C18.06 52.39, 34.01 34.04, 49.35 16.4 M12.74 70.7 C22.63 59.33, 32.51 47.96, 49.48 28.44 M12.74 70.7 C22.11 59.92, 31.49 49.14, 49.48 28.44 M23.37 70.67 C30.29 62.71, 37.2 54.75, 49.61 40.48 M23.37 70.67 C33.55 58.96, 43.72 47.26, 49.61 40.48 M34 70.63 C37.93 66.11, 41.86 61.59, 49.75 52.52 M34 70.63 C38.59 65.36, 43.17 60.08, 49.75 52.52 M-0.03 68.63 C-0.03 68.63, -0.03 68.63, -0.03 68.63 M-0.03 68.63 C-0.03 68.63, -0.03 68.63, -0.03 68.63 M12.01 68.49 C8.36 65.32, 4.71 62.15, -0.07 58 M12.01 68.49 C7.42 64.51, 2.84 60.52, -0.07 58 M24.05 68.36 C14.91 60.42, 5.78 52.48, -0.1 47.37 M24.05 68.36 C17.09 62.31, 10.13 56.26, -0.1 47.37 M36.85 68.88 C28.62 61.74, 20.4 54.59, -0.13 36.74 M36.85 68.88 C23.63 57.4, 10.42 45.91, -0.13 36.74 M46.62 66.78 C33.83 55.66, 21.04 44.55, -0.17 26.11 M46.62 66.78 C28.56 51.08, 10.49 35.37, -0.17 26.11 M46.59 56.15 C36.55 47.43, 26.52 38.71, -0.2 15.48 M46.59 56.15 C35.96 46.91, 25.32 37.67, -0.2 15.48 M46.55 45.52 C32.45 33.26, 18.35 21.01, -0.24 4.85 M46.55 45.52 C36.74 36.99, 26.93 28.47, -0.24 4.85 M46.52 34.89 C29.44 20.05, 12.36 5.2, 2.75 -3.16 M46.52 34.89 C35.13 24.99, 23.74 15.09, 2.75 -3.16 M46.48 24.26 C38.07 16.95, 29.65 9.63, 14.79 -3.29 M46.48 24.26 C36.17 15.29, 25.85 6.32, 14.79 -3.29 M46.45 13.63 C41.17 9.04, 35.89 4.46, 26.83 -3.43 M46.45 13.63 C40.68 8.62, 34.91 3.6, 26.83 -3.43 M46.42 3 C44.88 1.66, 43.33 0.32, 39.62 -2.9 M46.42 3 C44.94 1.72, 43.46 0.43, 39.62 -2.9" stroke="#868e96" stroke-width="1" fill="none"></path><path d="M0 0 C13.7 0, 27.39 0, 44.89 0 M0 0 C12.74 0, 25.47 0, 44.89 0 M44.89 0 C44.89 22.35, 44.89 44.71, 44.89 68.65 M44.89 0 C44.89 20.32, 44.89 40.63, 44.89 68.65 M44.89 68.65 C30.87 68.65, 16.86 68.65, 0 68.65 M44.89 68.65 C30.59 68.65, 16.29 68.65, 0 68.65 M0 68.65 C0 53.85, 0 39.05, 0 0 M0 68.65 C0 43.79, 0 18.93, 0 0" stroke="#000000" stroke-width="2" fill="none"></path></g><g stroke-linecap="round" transform="translate(444.1608371778227 760.5242723016963) rotate(0 17.68634444021592 26.254098365838104)"><path d="M0 0 L35.37 0 L35.37 52.51 L0 52.51" stroke="none" stroke-width="0" fill="#fff"></path><path d="M0 0 C8 0, 16.01 0, 35.37 0 M0 0 C7.57 0, 15.14 0, 35.37 0 M35.37 0 C35.37 15.36, 35.37 30.71, 35.37 52.51 M35.37 0 C35.37 13.81, 35.37 27.61, 35.37 52.51 M35.37 52.51 C22.08 52.51, 8.78 52.51, 0 52.51 M35.37 52.51 C26.98 52.51, 18.6 52.51, 0 52.51 M0 52.51 C0 37.45, 0 22.39, 0 0 M0 52.51 C0 41.41, 0 30.3, 0 0" stroke="#000000" stroke-width="2" fill="none"></path></g><g stroke-linecap="round" transform="translate(458.22509887324463 815.2795984945558) rotate(0 3.622082744793545 3.622082744793545)"><path d="M7.24 3.62 C7.24 3.83, 7.23 4.04, 7.19 4.25 C7.15 4.46, 7.1 4.66, 7.03 4.86 C6.95 5.06, 6.86 5.25, 6.76 5.43 C6.65 5.61, 6.53 5.79, 6.4 5.95 C6.26 6.11, 6.11 6.26, 5.95 6.4 C5.79 6.53, 5.61 6.65, 5.43 6.76 C5.25 6.86, 5.06 6.95, 4.86 7.03 C4.66 7.1, 4.46 7.15, 4.25 7.19 C4.04 7.23, 3.83 7.24, 3.62 7.24 C3.41 7.24, 3.2 7.23, 2.99 7.19 C2.79 7.15, 2.58 7.1, 2.38 7.03 C2.19 6.95, 1.99 6.86, 1.81 6.76 C1.63 6.65, 1.45 6.53, 1.29 6.4 C1.13 6.26, 0.98 6.11, 0.85 5.95 C0.71 5.79, 0.59 5.61, 0.49 5.43 C0.38 5.25, 0.29 5.06, 0.22 4.86 C0.15 4.66, 0.09 4.46, 0.06 4.25 C0.02 4.04, 0 3.83, 0 3.62 C0 3.41, 0.02 3.2, 0.06 2.99 C0.09 2.79, 0.15 2.58, 0.22 2.38 C0.29 2.19, 0.38 1.99, 0.49 1.81 C0.59 1.63, 0.71 1.45, 0.85 1.29 C0.98 1.13, 1.13 0.98, 1.29 0.85 C1.45 0.71, 1.63 0.59, 1.81 0.49 C1.99 0.38, 2.19 0.29, 2.38 0.22 C2.58 0.15, 2.79 0.09, 2.99 0.06 C3.2 0.02, 3.41 0, 3.62 0 C3.83 0, 4.04 0.02, 4.25 0.06 C4.46 0.09, 4.66 0.15, 4.86 0.22 C5.06 0.29, 5.25 0.38, 5.43 0.49 C5.61 0.59, 5.79 0.71, 5.95 0.85 C6.11 0.98, 6.26 1.13, 6.4 1.29 C6.53 1.45, 6.65 1.63, 6.76 1.81 C6.86 1.99, 6.95 2.19, 7.03 2.38 C7.1 2.58, 7.15 2.79, 7.19 2.99 C7.23 3.2, 7.23 3.52, 7.24 3.62 C7.25 3.73, 7.25 3.52, 7.24 3.62" stroke="none" stroke-width="0" fill="#fff"></path><path d="M7.24 3.62 C7.24 3.83, 7.23 4.04, 7.19 4.25 C7.15 4.46, 7.1 4.66, 7.03 4.86 C6.95 5.06, 6.86 5.25, 6.76 5.43 C6.65 5.61, 6.53 5.79, 6.4 5.95 C6.26 6.11, 6.11 6.26, 5.95 6.4 C5.79 6.53, 5.61 6.65, 5.43 6.76 C5.25 6.86, 5.06 6.95, 4.86 7.03 C4.66 7.1, 4.46 7.15, 4.25 7.19 C4.04 7.23, 3.83 7.24, 3.62 7.24 C3.41 7.24, 3.2 7.23, 2.99 7.19 C2.79 7.15, 2.58 7.1, 2.38 7.03 C2.19 6.95, 1.99 6.86, 1.81 6.76 C1.63 6.65, 1.45 6.53, 1.29 6.4 C1.13 6.26, 0.98 6.11, 0.85 5.95 C0.71 5.79, 0.59 5.61, 0.49 5.43 C0.38 5.25, 0.29 5.06, 0.22 4.86 C0.15 4.66, 0.09 4.46, 0.06 4.25 C0.02 4.04, 0 3.83, 0 3.62 C0 3.41, 0.02 3.2, 0.06 2.99 C0.09 2.79, 0.15 2.58, 0.22 2.38 C0.29 2.19, 0.38 1.99, 0.49 1.81 C0.59 1.63, 0.71 1.45, 0.85 1.29 C0.98 1.13, 1.13 0.98, 1.29 0.85 C1.45 0.71, 1.63 0.59, 1.81 0.49 C1.99 0.38, 2.19 0.29, 2.38 0.22 C2.58 0.15, 2.79 0.09, 2.99 0.06 C3.2 0.02, 3.41 0, 3.62 0 C3.83 0, 4.04 0.02, 4.25 0.06 C4.46 0.09, 4.66 0.15, 4.86 0.22 C5.06 0.29, 5.25 0.38, 5.43 0.49 C5.61 0.59, 5.79 0.71, 5.95 0.85 C6.11 0.98, 6.26 1.13, 6.4 1.29 C6.53 1.45, 6.65 1.63, 6.76 1.81 C6.86 1.99, 6.95 2.19, 7.03 2.38 C7.1 2.58, 7.15 2.79, 7.19 2.99 C7.23 3.2, 7.23 3.52, 7.24 3.62 C7.25 3.73, 7.25 3.52, 7.24 3.62" stroke="#000000" stroke-width="2" fill="none"></path></g><g stroke-linecap="round" transform="translate(449.409382082446 767.2082758238944) rotate(0 12.437799535592092 6.304023542482355)"><path d="M0 0 C0 0, 0 0, 0 0 M0 0 C0 0, 0 0, 0 0 M0.13 12.04 C3.52 8.15, 6.9 4.25, 10.63 -0.03 M0.13 12.04 C3.91 7.69, 7.7 3.34, 10.63 -0.03 M5.51 18.04 C9.78 13.14, 14.05 8.23, 21.26 -0.07 M5.51 18.04 C10.45 12.37, 15.38 6.7, 21.26 -0.07 M16.14 18.01 C19.61 14.03, 23.07 10.04, 28.61 3.67 M16.14 18.01 C19.11 14.6, 22.08 11.18, 28.61 3.67 M-0.2 12.43 C-0.2 12.43, -0.2 12.43, -0.2 12.43 M-0.2 12.43 C-0.2 12.43, -0.2 12.43, -0.2 12.43 M11.84 12.3 C7.58 8.59, 3.32 4.89, -0.24 1.8 M11.84 12.3 C9 9.83, 6.17 7.37, -0.24 1.8 M24.63 12.82 C17.14 6.31, 9.64 -0.21, 4.25 -4.89 M24.63 12.82 C18.85 7.79, 13.06 2.76, 4.25 -4.89 M29.88 6.78 C26.09 3.49, 22.3 0.19, 16.3 -5.03 M29.88 6.78 C26.93 4.22, 23.99 1.66, 16.3 -5.03" stroke="#4c6ef588" stroke-width="1" fill="none"></path><path d="M0 0 C6.21 0, 12.41 0, 24.88 0 M0 0 C9.43 0, 18.85 0, 24.88 0 M24.88 0 C24.88 4.79, 24.88 9.58, 24.88 12.61 M24.88 0 C24.88 3.54, 24.88 7.08, 24.88 12.61 M24.88 12.61 C16.61 12.61, 8.35 12.61, 0 12.61 M24.88 12.61 C19.85 12.61, 14.82 12.61, 0 12.61 M0 12.61 C0 8.54, 0 4.48, 0 0 M0 12.61 C0 7.67, 0 2.73, 0 0" stroke="#000000" stroke-width="2" fill="none"></path></g><g stroke-linecap="round" transform="translate(449.409382082446 789.7485510381036) rotate(0 12.437799535592092 6.304023542482355)"><path d="M0 0 C0 0, 0 0, 0 0 M0 0 C0 0, 0 0, 0 0 M0.13 12.04 C2.43 9.4, 4.73 6.75, 10.63 -0.03 M0.13 12.04 C3.87 7.74, 7.61 3.44, 10.63 -0.03 M5.51 18.04 C9.08 13.94, 12.65 9.84, 21.26 -0.07 M5.51 18.04 C9.28 13.71, 13.05 9.38, 21.26 -0.07 M16.14 18.01 C20.82 12.63, 25.49 7.26, 28.61 3.67 M16.14 18.01 C19.46 14.2, 22.77 10.39, 28.61 3.67 M-0.2 12.43 C-0.2 12.43, -0.2 12.43, -0.2 12.43 M-0.2 12.43 C-0.2 12.43, -0.2 12.43, -0.2 12.43 M11.84 12.3 C9.12 9.93, 6.39 7.57, -0.24 1.8 M11.84 12.3 C8.3 9.22, 4.76 6.15, -0.24 1.8 M24.63 12.82 C17.51 6.63, 10.38 0.43, 4.25 -4.89 M24.63 12.82 C20.47 9.2, 16.31 5.58, 4.25 -4.89 M29.88 6.78 C26.94 4.23, 24.01 1.68, 16.3 -5.03 M29.88 6.78 C26.84 4.14, 23.8 1.49, 16.3 -5.03" stroke="#4c6ef588" stroke-width="1" fill="none"></path><path d="M0 0 C8.51 0, 17.01 0, 24.88 0 M0 0 C7.49 0, 14.98 0, 24.88 0 M24.88 0 C24.88 3.09, 24.88 6.18, 24.88 12.61 M24.88 0 C24.88 4.78, 24.88 9.57, 24.88 12.61 M24.88 12.61 C19.07 12.61, 13.27 12.61, 0 12.61 M24.88 12.61 C18.3 12.61, 11.73 12.61, 0 12.61 M0 12.61 C0 9.84, 0 7.08, 0 0 M0 12.61 C0 9.52, 0 6.44, 0 0" stroke="#000000" stroke-width="2" fill="none"></path></g><g transform="translate(429.966796875 832.2366032757288) rotate(0 31.5 12.5)"><text x="0" y="18" font-family="Virgil, Segoe UI Emoji" font-size="20px" fill="#000000" text-anchor="start" style="white-space: pre;" direction="ltr">Device</text></g><g stroke-linecap="round"><g transform="translate(459.794921875 743.9547058964858) rotate(0 5.084790888642885 -69.52151782577857)"><path d="M-0.2 -1.03 C1.97 -24.1, 9.83 -115.23, 11.93 -138.46 M-1.76 1.04 C0.3 -22.35, 8.53 -116.64, 10.76 -140.08" stroke="#000000" stroke-width="1" fill="none"></path></g><g transform="translate(459.794921875 743.9547058964858) rotate(0 5.084790888642885 -69.52151782577857)"><path d="M16.71 -111.79 C18.4 -117.21, 13.52 -121.65, 10.45 -140.56 M18.36 -110.17 C17.6 -117.76, 15.42 -123.07, 11.03 -139.87" stroke="#000000" stroke-width="1" fill="none"></path></g><g transform="translate(459.794921875 743.9547058964858) rotate(0 5.084790888642885 -69.52151782577857)"><path d="M-3.72 -113.64 C2.29 -118.64, 1.74 -122.68, 10.45 -140.56 M-2.08 -112.02 C1.49 -119.27, 3.64 -124.19, 11.03 -139.87" stroke="#000000" stroke-width="1" fill="none"></path></g></g><g transform="translate(518.4734451760361 649.305262298873) rotate(0 134 60)"><text x="0" y="14" font-family="Virgil, Segoe UI Emoji" font-size="16px" fill="#000000" text-anchor="start" style="white-space: pre;" direction="ltr">GET /payment_feed?user_id=&lt;id&gt;</text><text x="0" y="34" font-family="Virgil, Segoe UI Emoji" font-size="16px" fill="#000000" text-anchor="start" style="white-space: pre;" direction="ltr">POST /payment</text><text x="0" y="54" font-family="Virgil, Segoe UI Emoji" font-size="16px" fill="#000000" text-anchor="start" style="white-space: pre;" direction="ltr">    {</text><text x="0" y="74" font-family="Virgil, Segoe UI Emoji" font-size="16px" fill="#000000" text-anchor="start" style="white-space: pre;" direction="ltr">        user_id:&lt;id&gt;</text><text x="0" y="94" font-family="Virgil, Segoe UI Emoji" font-size="16px" fill="#000000" text-anchor="start" style="white-space: pre;" direction="ltr">        amount: &lt;amount&gt;</text><text x="0" y="114" font-family="Virgil, Segoe UI Emoji" font-size="16px" fill="#000000" text-anchor="start" style="white-space: pre;" direction="ltr">    }</text></g><g transform="translate(118.84063267603608 358.543543548873) rotate(0 102 50)"><text x="0" y="14" font-family="Virgil, Segoe UI Emoji" font-size="16px" fill="#000000" text-anchor="start" style="white-space: pre;" direction="ltr">POST /payment</text><text x="0" y="34" font-family="Virgil, Segoe UI Emoji" font-size="16px" fill="#000000" text-anchor="start" style="white-space: pre;" direction="ltr">    {</text><text x="0" y="54" font-family="Virgil, Segoe UI Emoji" font-size="16px" fill="#000000" text-anchor="start" style="white-space: pre;" direction="ltr">        user_id:&lt;id&gt;</text><text x="0" y="74" font-family="Virgil, Segoe UI Emoji" font-size="16px" fill="#000000" text-anchor="start" style="white-space: pre;" direction="ltr">        amount: &lt;amount&gt;</text><text x="0" y="94" font-family="Virgil, Segoe UI Emoji" font-size="16px" fill="#000000" text-anchor="start" style="white-space: pre;" direction="ltr">    }</text></g><g stroke-linecap="round" transform="translate(776.5065881228034 28.67744697537313) rotate(0 220.19881406752825 269.1318838603124)"><path d="M-0.06 0.12 L442.22 -0.89 L438.8 536.91 L-0.92 539.7" stroke="none" stroke-width="0" fill="#868e96"></path><path d="M0.14 -0.11 C127.25 -0.06, 254.27 -0.09, 441.27 -0.39 M0.15 0.23 C171.59 -0.39, 342.63 0.06, 440.86 -0.45 M440.46 0.03 C438.68 209.59, 438.95 419.97, 440.48 538.73 M440.3 0.08 C441.71 174.72, 441.5 349.9, 440.42 538.16 M439.72 538.31 C278.96 540.24, 114.84 540.4, -0.34 538.4 M440.2 538.39 C275.41 537.74, 111.08 537.75, 0.08 537.81 M-0.15 538 C-1.78 396.37, -1.23 255.36, -0.07 -0.73 M0.13 538.29 C1.09 335.21, 0.92 131.97, -0.12 -0.23" stroke="#000000" stroke-width="1" fill="none"></path></g><g stroke-linecap="round" transform="translate(755.7909303356987 10) rotate(0 220.19881406752825 269.1318838603124)"><path d="M0.12 1.82 L439.51 -1.59 L439.04 537.34 L1.43 538.22" stroke="none" stroke-width="0" fill="#ffffff"></path><path d="M-0.11 0.03 C132.04 -0.47, 264.71 0.58, 440 0.89 M0.23 0.17 C129.19 -0.88, 258.97 -0.21, 439.95 0.45 M440.43 -0.34 C442.18 126.92, 442.61 254.06, 440.86 538.47 M440.48 0.08 C441.54 192.23, 441.62 384.76, 440.3 538.54 M440.44 539.2 C291.29 535.95, 141.73 536.43, 0.14 539.01 M440.53 538.12 C274.24 537.76, 108.13 537.46, -0.45 538.08 M-0.27 538.47 C-1.13 328.02, -0.46 116.21, -0.73 0.62 M0.03 538.08 C0.73 408.27, 0.83 278.87, -0.23 -0.01" stroke="#000000" stroke-width="1" fill="none"></path></g><g stroke-linecap="round"><g transform="translate(782.1403118989119 72.44863350851776) rotate(0 195.66373861407243 0.11876995805651802)"><path d="M-0.13 0.04 C65.04 -0.02, 325.55 -0.37, 390.68 -0.2 M-1.66 -0.99 C63.92 -0.88, 327.19 1.18, 392.98 1.23" stroke="#000000" stroke-width="1" fill="none"></path></g></g><g transform="translate(778.226799030964 35.69059625399319) rotate(0 11.282643703206588 10.256948821096913)"><text x="0" y="14.513897642193829" font-family="Virgil, Segoe UI Emoji" font-size="16.141423889552126px" fill="#000000" text-anchor="start" style="white-space: pre;" direction="ltr">ID</text></g><g transform="translate(838.9442738044943 36.9975364208845) rotate(0 36.75633354803358 10.948695099414266)"><text x="0" y="15.897390198828546" font-family="Virgil, Segoe UI Emoji" font-size="16.52178049505239px" fill="#000000" text-anchor="start" style="white-space: pre;" direction="ltr">AMOUNT</text></g><g transform="translate(840.3460140202549 88.05943322098182) rotate(0 26.36103346821932 146.78302726622118)"><text x="0" y="14.969003895174456" font-family="Virgil, Segoe UI Emoji" font-size="16.671603575783465px" fill="#000000" text-anchor="start" style="white-space: pre;" direction="ltr">-800</text><text x="0" y="35.93800779034891" font-family="Virgil, Segoe UI Emoji" font-size="16.671603575783465px" fill="#000000" text-anchor="start" style="white-space: pre;" direction="ltr">-1600</text><text x="0" y="56.90701168552337" font-family="Virgil, Segoe UI Emoji" font-size="16.671603575783465px" fill="#000000" text-anchor="start" style="white-space: pre;" direction="ltr">-1250</text><text x="0" y="77.87601558069782" font-family="Virgil, Segoe UI Emoji" font-size="16.671603575783465px" fill="#000000" text-anchor="start" style="white-space: pre;" direction="ltr">-2975</text><text x="0" y="98.84501947587228" font-family="Virgil, Segoe UI Emoji" font-size="16.671603575783465px" fill="#000000" text-anchor="start" style="white-space: pre;" direction="ltr">-1250</text><text x="0" y="119.81402337104674" font-family="Virgil, Segoe UI Emoji" font-size="16.671603575783465px" fill="#000000" text-anchor="start" style="white-space: pre;" direction="ltr">-2850</text><text x="0" y="140.78302726622118" font-family="Virgil, Segoe UI Emoji" font-size="16.671603575783465px" fill="#000000" text-anchor="start" style="white-space: pre;" direction="ltr">-2450</text><text x="0" y="161.75203116139565" font-family="Virgil, Segoe UI Emoji" font-size="16.671603575783465px" fill="#000000" text-anchor="start" style="white-space: pre;" direction="ltr">-3000</text><text x="0" y="182.72103505657012" font-family="Virgil, Segoe UI Emoji" font-size="16.671603575783465px" fill="#000000" text-anchor="start" style="white-space: pre;" direction="ltr">5000</text><text x="0" y="203.69003895174455" font-family="Virgil, Segoe UI Emoji" font-size="16.671603575783465px" fill="#000000" text-anchor="start" style="white-space: pre;" direction="ltr">-1500</text><text x="0" y="224.65904284691902" font-family="Virgil, Segoe UI Emoji" font-size="16.671603575783465px" fill="#000000" text-anchor="start" style="white-space: pre;" direction="ltr">-1100</text><text x="0" y="245.6280467420935" font-family="Virgil, Segoe UI Emoji" font-size="16.671603575783465px" fill="#000000" text-anchor="start" style="white-space: pre;" direction="ltr">-950</text><text x="0" y="266.59705063726796" font-family="Virgil, Segoe UI Emoji" font-size="16.671603575783465px" fill="#000000" text-anchor="start" style="white-space: pre;" direction="ltr">3000</text><text x="0" y="287.56605453244237" font-family="Virgil, Segoe UI Emoji" font-size="16.671603575783465px" fill="#000000" text-anchor="start" style="white-space: pre;" direction="ltr">-1300</text></g><g transform="translate(775.5982717714351 86.74458480053093) rotate(0 22.673867509508398 151.15911673005573)"><text x="0" y="15.594159532865103" font-family="Virgil, Segoe UI Emoji" font-size="17.275327626292036px" fill="#000000" text-anchor="start" style="white-space: pre;" direction="ltr">7369</text><text x="0" y="37.188319065730205" font-family="Virgil, Segoe UI Emoji" font-size="17.275327626292036px" fill="#000000" text-anchor="start" style="white-space: pre;" direction="ltr">7499</text><text x="0" y="58.782478598595304" font-family="Virgil, Segoe UI Emoji" font-size="17.275327626292036px" fill="#000000" text-anchor="start" style="white-space: pre;" direction="ltr">7521</text><text x="0" y="80.37663813146041" font-family="Virgil, Segoe UI Emoji" font-size="17.275327626292036px" fill="#000000" text-anchor="start" style="white-space: pre;" direction="ltr">7566</text><text x="0" y="101.97079766432552" font-family="Virgil, Segoe UI Emoji" font-size="17.275327626292036px" fill="#000000" text-anchor="start" style="white-space: pre;" direction="ltr">7654</text><text x="0" y="123.56495719719061" font-family="Virgil, Segoe UI Emoji" font-size="17.275327626292036px" fill="#000000" text-anchor="start" style="white-space: pre;" direction="ltr">7698</text><text x="0" y="145.15911673005573" font-family="Virgil, Segoe UI Emoji" font-size="17.275327626292036px" fill="#000000" text-anchor="start" style="white-space: pre;" direction="ltr">7782</text><text x="0" y="166.75327626292082" font-family="Virgil, Segoe UI Emoji" font-size="17.275327626292036px" fill="#000000" text-anchor="start" style="white-space: pre;" direction="ltr">7788</text><text x="0" y="188.3474357957859" font-family="Virgil, Segoe UI Emoji" font-size="17.275327626292036px" fill="#000000" text-anchor="start" style="white-space: pre;" direction="ltr">7839</text><text x="0" y="209.94159532865103" font-family="Virgil, Segoe UI Emoji" font-size="17.275327626292036px" fill="#000000" text-anchor="start" style="white-space: pre;" direction="ltr">7844</text><text x="0" y="231.53575486151612" font-family="Virgil, Segoe UI Emoji" font-size="17.275327626292036px" fill="#000000" text-anchor="start" style="white-space: pre;" direction="ltr">7876</text><text x="0" y="253.12991439438122" font-family="Virgil, Segoe UI Emoji" font-size="17.275327626292036px" fill="#000000" text-anchor="start" style="white-space: pre;" direction="ltr">7900</text><text x="0" y="274.7240739272463" font-family="Virgil, Segoe UI Emoji" font-size="17.275327626292036px" fill="#000000" text-anchor="start" style="white-space: pre;" direction="ltr">7902</text><text x="0" y="296.31823346011146" font-family="Virgil, Segoe UI Emoji" font-size="17.275327626292036px" fill="#000000" text-anchor="start" style="white-space: pre;" direction="ltr">7934</text></g><g stroke-linecap="round"><g transform="translate(828.5526549652145 29.6550498801746) rotate(0 -0.6024104847572289 246.43245674271807)"><path d="M-0.08 0.14 C0.06 82.24, 0.29 411.59, 0.37 493.7 M-1.58 -0.84 C-1.52 81.43, -0.62 409.41, -0.38 491.87" stroke="#000000" stroke-width="1" fill="none"></path></g></g><g stroke-linecap="round"><g transform="translate(921.3482880591685 28.152773773446768) rotate(0 -0.7654719119332754 246.87430553008542)"><path d="M-0.22 0.63 C0 83.03, 0.19 411.83, 0.27 493.83 M-1.8 -0.09 C-1.62 82.02, -0.77 409.78, -0.54 492.08" stroke="#000000" stroke-width="1" fill="none"></path></g></g><g transform="translate(931.1405438085449 86.93526247314074) rotate(0 23.728624780238192 159.2315610252826)"><text x="0" y="14.230874803371012" font-family="Virgil, Segoe UI Emoji" font-size="17.211036799558848px" fill="#000000" text-anchor="start" style="white-space: pre;" direction="ltr">9843</text><text x="0" y="35.461749606742025" font-family="Virgil, Segoe UI Emoji" font-size="17.211036799558848px" fill="#000000" text-anchor="start" style="white-space: pre;" direction="ltr">9823</text><text x="0" y="56.69262441011304" font-family="Virgil, Segoe UI Emoji" font-size="17.211036799558848px" fill="#000000" text-anchor="start" style="white-space: pre;" direction="ltr">1843</text><text x="0" y="77.92349921348405" font-family="Virgil, Segoe UI Emoji" font-size="17.211036799558848px" fill="#000000" text-anchor="start" style="white-space: pre;" direction="ltr">4363</text><text x="0" y="99.15437401685506" font-family="Virgil, Segoe UI Emoji" font-size="17.211036799558848px" fill="#000000" text-anchor="start" style="white-space: pre;" direction="ltr">9843</text><text x="0" y="120.38524882022608" font-family="Virgil, Segoe UI Emoji" font-size="17.211036799558848px" fill="#000000" text-anchor="start" style="white-space: pre;" direction="ltr">5435</text><text x="0" y="141.61612362359708" font-family="Virgil, Segoe UI Emoji" font-size="17.211036799558848px" fill="#000000" text-anchor="start" style="white-space: pre;" direction="ltr">7575</text><text x="0" y="162.8469984269681" font-family="Virgil, Segoe UI Emoji" font-size="17.211036799558848px" fill="#000000" text-anchor="start" style="white-space: pre;" direction="ltr">1232</text><text x="0" y="184.07787323033912" font-family="Virgil, Segoe UI Emoji" font-size="17.211036799558848px" fill="#000000" text-anchor="start" style="white-space: pre;" direction="ltr">9237</text><text x="0" y="205.30874803371012" font-family="Virgil, Segoe UI Emoji" font-size="17.211036799558848px" fill="#000000" text-anchor="start" style="white-space: pre;" direction="ltr">2342</text><text x="0" y="226.53962283708114" font-family="Virgil, Segoe UI Emoji" font-size="17.211036799558848px" fill="#000000" text-anchor="start" style="white-space: pre;" direction="ltr">8974</text><text x="0" y="247.77049764045216" font-family="Virgil, Segoe UI Emoji" font-size="17.211036799558848px" fill="#000000" text-anchor="start" style="white-space: pre;" direction="ltr">3487</text><text x="0" y="269.0013724438232" font-family="Virgil, Segoe UI Emoji" font-size="17.211036799558848px" fill="#000000" text-anchor="start" style="white-space: pre;" direction="ltr">5493</text><text x="0" y="290.23224724719415" font-family="Virgil, Segoe UI Emoji" font-size="17.211036799558848px" fill="#000000" text-anchor="start" style="white-space: pre;" direction="ltr">4665</text><text x="0" y="311.4631220505652" font-family="Virgil, Segoe UI Emoji" font-size="17.211036799558848px" fill="#000000" text-anchor="start" style="white-space: pre;" direction="ltr"></text></g><g transform="translate(933.9464013205818 39.026062659816546) rotate(0 35.0712841426124 9.063365564944789)"><text x="0" y="13.12673112988957" font-family="Virgil, Segoe UI Emoji" font-size="14.368145938952324px" fill="#000000" text-anchor="start" style="white-space: pre;" direction="ltr">USER_ID</text></g><g stroke-linecap="round"><g transform="translate(1010.5326007955186 21.265616703267426) rotate(0 0.7323457366414914 246.37848709043786)"><path d="M-0.29 0.07 C-0.34 82.34, 0.56 411.53, 0.51 493.69 M1.76 -0.93 C1.53 80.97, 0.4 409.31, -0.17 491.86" stroke="#000000" stroke-width="1" fill="none"></path></g></g><g transform="translate(1023.9396854823565 38.216958546845206) rotate(0 26 9)"><text x="0" y="13" font-family="Virgil, Segoe UI Emoji" font-size="14.368145938952322px" fill="#000000" text-anchor="start" style="white-space: pre;" direction="ltr">CO_ID</text></g><g transform="translate(1022.9148300948577 84.67130521704871) rotate(0 23.365461483194395 150.97682804525604)"><text x="0" y="15.568118292179435" font-family="Virgil, Segoe UI Emoji" font-size="17.211036799558833px" fill="#000000" text-anchor="start" style="white-space: pre;" direction="ltr">3425</text><text x="0" y="37.13623658435887" font-family="Virgil, Segoe UI Emoji" font-size="17.211036799558833px" fill="#000000" text-anchor="start" style="white-space: pre;" direction="ltr">2346</text><text x="0" y="58.704354876538304" font-family="Virgil, Segoe UI Emoji" font-size="17.211036799558833px" fill="#000000" text-anchor="start" style="white-space: pre;" direction="ltr">9854</text><text x="0" y="80.27247316871774" font-family="Virgil, Segoe UI Emoji" font-size="17.211036799558833px" fill="#000000" text-anchor="start" style="white-space: pre;" direction="ltr">4593</text><text x="0" y="101.84059146089717" font-family="Virgil, Segoe UI Emoji" font-size="17.211036799558833px" fill="#000000" text-anchor="start" style="white-space: pre;" direction="ltr">5689</text><text x="0" y="123.40870975307661" font-family="Virgil, Segoe UI Emoji" font-size="17.211036799558833px" fill="#000000" text-anchor="start" style="white-space: pre;" direction="ltr">4358</text><text x="0" y="144.97682804525604" font-family="Virgil, Segoe UI Emoji" font-size="17.211036799558833px" fill="#000000" text-anchor="start" style="white-space: pre;" direction="ltr">5326</text><text x="0" y="166.54494633743548" font-family="Virgil, Segoe UI Emoji" font-size="17.211036799558833px" fill="#000000" text-anchor="start" style="white-space: pre;" direction="ltr">3453</text><text x="0" y="188.1130646296149" font-family="Virgil, Segoe UI Emoji" font-size="17.211036799558833px" fill="#000000" text-anchor="start" style="white-space: pre;" direction="ltr">2342</text><text x="0" y="209.68118292179435" font-family="Virgil, Segoe UI Emoji" font-size="17.211036799558833px" fill="#000000" text-anchor="start" style="white-space: pre;" direction="ltr">2455</text><text x="0" y="231.24930121397378" font-family="Virgil, Segoe UI Emoji" font-size="17.211036799558833px" fill="#000000" text-anchor="start" style="white-space: pre;" direction="ltr">2455</text><text x="0" y="252.81741950615321" font-family="Virgil, Segoe UI Emoji" font-size="17.211036799558833px" fill="#000000" text-anchor="start" style="white-space: pre;" direction="ltr">5326</text><text x="0" y="274.3855377983326" font-family="Virgil, Segoe UI Emoji" font-size="17.211036799558833px" fill="#000000" text-anchor="start" style="white-space: pre;" direction="ltr">2342</text><text x="0" y="295.9536560905121" font-family="Virgil, Segoe UI Emoji" font-size="17.211036799558833px" fill="#000000" text-anchor="start" style="white-space: pre;" direction="ltr">4246</text></g><g transform="translate(827.065242051036 664.438074798873) rotate(0 26.5 168)"><text x="0" y="17" font-family="Virgil, Segoe UI Emoji" font-size="19.193363717310323px" fill="#000000" text-anchor="start" style="white-space: pre;" direction="ltr">3425</text><text x="0" y="41" font-family="Virgil, Segoe UI Emoji" font-size="19.193363717310323px" fill="#000000" text-anchor="start" style="white-space: pre;" direction="ltr">2342</text><text x="0" y="65" font-family="Virgil, Segoe UI Emoji" font-size="19.193363717310323px" fill="#000000" text-anchor="start" style="white-space: pre;" direction="ltr">9854</text><text x="0" y="89" font-family="Virgil, Segoe UI Emoji" font-size="19.193363717310323px" fill="#000000" text-anchor="start" style="white-space: pre;" direction="ltr">4593</text><text x="0" y="113" font-family="Virgil, Segoe UI Emoji" font-size="19.193363717310323px" fill="#000000" text-anchor="start" style="white-space: pre;" direction="ltr">5689</text><text x="0" y="137" font-family="Virgil, Segoe UI Emoji" font-size="19.193363717310323px" fill="#000000" text-anchor="start" style="white-space: pre;" direction="ltr">4358</text><text x="0" y="161" font-family="Virgil, Segoe UI Emoji" font-size="19.193363717310323px" fill="#000000" text-anchor="start" style="white-space: pre;" direction="ltr">5326</text><text x="0" y="185" font-family="Virgil, Segoe UI Emoji" font-size="19.193363717310323px" fill="#000000" text-anchor="start" style="white-space: pre;" direction="ltr">3453</text><text x="0" y="209" font-family="Virgil, Segoe UI Emoji" font-size="19.193363717310323px" fill="#000000" text-anchor="start" style="white-space: pre;" direction="ltr">8635</text><text x="0" y="233" font-family="Virgil, Segoe UI Emoji" font-size="19.193363717310323px" fill="#000000" text-anchor="start" style="white-space: pre;" direction="ltr">2455</text><text x="0" y="257" font-family="Virgil, Segoe UI Emoji" font-size="19.193363717310323px" fill="#000000" text-anchor="start" style="white-space: pre;" direction="ltr">2455</text><text x="0" y="281" font-family="Virgil, Segoe UI Emoji" font-size="19.193363717310323px" fill="#000000" text-anchor="start" style="white-space: pre;" direction="ltr">5326</text><text x="0" y="305" font-family="Virgil, Segoe UI Emoji" font-size="19.193363717310323px" fill="#000000" text-anchor="start" style="white-space: pre;" direction="ltr">2342</text><text x="0" y="329" font-family="Virgil, Segoe UI Emoji" font-size="19.193363717310323px" fill="#000000" text-anchor="start" style="white-space: pre;" direction="ltr">4246</text></g><g stroke-linecap="round"><g transform="translate(1086.3281249999998 22.184567560375797) rotate(0 0.5037574954636739 246.28027561801224)"><path d="M0.7 0.18 C0.67 82.4, -0.47 410, -0.68 492.25 M-0.39 -0.77 C0.02 81.67, 1.88 411.26, 1.68 493.33" stroke="#000000" stroke-width="1" fill="none"></path></g></g><g transform="translate(1096.9374999999998 35.905877771485905) rotate(0 45.5 9)"><text x="0" y="13" font-family="Virgil, Segoe UI Emoji" font-size="14.368145938952322px" fill="#000000" text-anchor="start" style="white-space: pre;" direction="ltr">TIMESTAMP</text></g><g transform="translate(1090.267468969762 86.01025424620326) rotate(0 52.5 161.5)"><text x="0" y="14.533333333333335" font-family="Virgil, Segoe UI Emoji" font-size="17.211036799558848px" fill="#000000" text-anchor="start" style="white-space: pre;" direction="ltr">1656496735</text><text x="0" y="36.06666666666667" font-family="Virgil, Segoe UI Emoji" font-size="17.211036799558848px" fill="#000000" text-anchor="start" style="white-space: pre;" direction="ltr">1656491234</text><text x="0" y="57.60000000000001" font-family="Virgil, Segoe UI Emoji" font-size="17.211036799558848px" fill="#000000" text-anchor="start" style="white-space: pre;" direction="ltr">1656497657</text><text x="0" y="79.13333333333334" font-family="Virgil, Segoe UI Emoji" font-size="17.211036799558848px" fill="#000000" text-anchor="start" style="white-space: pre;" direction="ltr">1656492451</text><text x="0" y="100.66666666666667" font-family="Virgil, Segoe UI Emoji" font-size="17.211036799558848px" fill="#000000" text-anchor="start" style="white-space: pre;" direction="ltr">1656496775</text><text x="0" y="122.20000000000002" font-family="Virgil, Segoe UI Emoji" font-size="17.211036799558848px" fill="#000000" text-anchor="start" style="white-space: pre;" direction="ltr">1656425789</text><text x="0" y="143.73333333333335" font-family="Virgil, Segoe UI Emoji" font-size="17.211036799558848px" fill="#000000" text-anchor="start" style="white-space: pre;" direction="ltr">1656492434</text><text x="0" y="165.26666666666668" font-family="Virgil, Segoe UI Emoji" font-size="17.211036799558848px" fill="#000000" text-anchor="start" style="white-space: pre;" direction="ltr">1656495678</text><text x="0" y="186.8" font-family="Virgil, Segoe UI Emoji" font-size="17.211036799558848px" fill="#000000" text-anchor="start" style="white-space: pre;" direction="ltr">1656485646</text><text x="0" y="208.33333333333334" font-family="Virgil, Segoe UI Emoji" font-size="17.211036799558848px" fill="#000000" text-anchor="start" style="white-space: pre;" direction="ltr">1656424534</text><text x="0" y="229.86666666666667" font-family="Virgil, Segoe UI Emoji" font-size="17.211036799558848px" fill="#000000" text-anchor="start" style="white-space: pre;" direction="ltr">1656496456</text><text x="0" y="251.40000000000003" font-family="Virgil, Segoe UI Emoji" font-size="17.211036799558848px" fill="#000000" text-anchor="start" style="white-space: pre;" direction="ltr">1656496735</text><text x="0" y="272.93333333333334" font-family="Virgil, Segoe UI Emoji" font-size="17.211036799558848px" fill="#000000" text-anchor="start" style="white-space: pre;" direction="ltr">1656496675</text><text x="0" y="294.4666666666667" font-family="Virgil, Segoe UI Emoji" font-size="17.211036799558848px" fill="#000000" text-anchor="start" style="white-space: pre;" direction="ltr">1656496342</text><text x="0" y="316" font-family="Virgil, Segoe UI Emoji" font-size="17.211036799558848px" fill="#000000" text-anchor="start" style="white-space: pre;" direction="ltr"></text></g></svg>